<?xml version="1.0" encoding="utf-8"?>
<!-- Generator: Adobe Illustrator 20.1.0, SVG Export Plug-In . SVG Version: 6.00 Build 0)  -->
<svg version="1.1" id="logo" xmlns="http://www.w3.org/2000/svg" xmlns:xlink="http://www.w3.org/1999/xlink" x="0px" y="0px"
	 viewBox="0 0 300 96" style="enable-background:new 0 0 300 96;" xml:space="preserve">
<style type="text/css">
	.st0{fill:#D52D27;}
	.st1{fill:#FFFFFF;}
</style>
<g>
	<path d="M126.6,46.3c-2.7,0-4.6,1.1-6.5,2.9H120V35.3h-5.8v32.6h5.5V65h0.1c1.3,2.2,3.9,3.5,6.6,3.5c6,0,10.6-4.7,10.6-11.2
		C137.1,51,132.6,46.3,126.6,46.3 M125.5,63.5c-3.5,0-5.6-3.1-5.6-6.2c0-2.9,2.1-6.2,5.6-6.2c3.7,0,5.6,3.1,5.6,6.2
		C131.2,60.4,129.1,63.5,125.5,63.5 M87.3,58.4c0,2.5-1.6,5.1-4.6,5.1c-2.3,0-3.5-1.6-3.5-5V46.9h-5.8v13c0,4.4,2.2,8.6,8,8.6
		c2.8,0,5-2.2,6.2-3.7h0.1v3.1h5.5v-21h-5.8L87.3,58.4L87.3,58.4z M64.1,41h-5.7v5.9h-3.5v4.7h3.5v9.2c0,3.2,0.8,7.6,7,7.6
		c1.2,0,2.8-0.3,3.7-0.6l-0.1-4.6c-0.7,0.2-1.5,0.5-2.6,0.5c-1.7,0-2.3-1.2-2.3-2.9v-9.2h5v-4.7h-5L64.1,41L64.1,41z M103.8,50.1
		L103.8,50.1l-0.1-3.2h-5.6v21h5.8V56.7c0-0.1,0.3-5.1,5.3-5.1c0.4,0,1.1,0.1,1.8,0.2v-5.3c-0.4-0.1-1.3-0.2-1.6-0.2
		C107,46.3,105.1,48.2,103.8,50.1 M191.6,46.3c-3.3,0-6.8,1.3-9,3.4l2.9,3.3c1.3-1.3,3.7-2.2,5.6-2.2c2.1,0,4.2,1,4.2,3.5v0.4
		c-6.1,0-13.9,0.8-13.9,7c0,4.6,4,6.7,8,6.7c2.5,0,4.7-1.4,5.9-2.9h0.1V68h5.4V55.2C201,51.8,199.7,46.3,191.6,46.3 M195.4,59
		c0,3.1-1.8,5-4.9,5c-1.2,0-3.3-0.4-3.3-2.3c0-2,2.6-3.2,7.5-3.2h0.8V59z M151.1,46.3c-6.6,0-11.4,4.7-11.4,11
		c0,6.6,4.9,11.2,11.4,11.2c6.5,0,11.4-4.7,11.4-11.2C162.6,51,157.7,46.3,151.1,46.3 M151.1,63.5c-3.8,0-5.5-3.2-5.5-6.2
		s1.7-6.2,5.5-6.2s5.5,3.1,5.5,6.2C156.7,60.3,154.9,63.5,151.1,63.5 M218.1,56.8l7.5-9.9h-6.8l-4.4,6l-4.2-6h-7l7.6,9.9l-8.6,11.1
		h6.9l5.1-7.1l5.1,7.1h7.1L218.1,56.8z M173.6,41h-5.7v5.9h-3.5v4.7h3.5v9.2c0,3.2,0.8,7.6,7,7.6c1.2,0,2.8-0.3,3.7-0.6l-0.1-4.6
		c-0.6,0.2-1.4,0.5-2.6,0.5c-1.7,0-2.3-1.2-2.3-2.9v-9.2h5v-4.7h-5L173.6,41L173.6,41z"/>
	<path class="st0" d="M0,47.6c0-13.5,10.9-24.4,24.4-24.4s24.4,10.9,24.4,24.4S38,72,24.4,72S0,61.1,0,47.6"/>
	<path class="st1" d="M19,56.5c-2.9-2-5.5-4.2-8.1-6.5c-1,2.1-1.8,4.2-2.6,6.4c4.1,3.5,9.6,7.5,13.4,9.8c4.9-12.7,12.6-21,19.9-26.7
		c-1-2-2.2-3.8-3.7-5.3C30.1,40.1,23.6,47.8,19,56.5"/>
	<path d="M69.7,24.3c-1.6,0-2.9,1-3.3,2l0,0v-1.6h-2.6v10.7h2.7v-5.9c0-1.4,0.8-2.9,2.5-2.9c1.7,0,2,1.6,2,2.9v5.9h2.7v-6.7
		C73.6,26.5,72.5,24.3,69.7,24.3 M58.4,35.3h2.7V24.6h-2.7C58.4,24.6,58.4,35.3,58.4,35.3z M102.6,24.6V27h3v8.4h2.7V27h3v-2.4
		H102.6z M107,23.2c0.9,0,1.6-0.8,1.6-1.6S107.9,20,107,20c-0.9,0-1.6,0.8-1.6,1.6S106.2,23.2,107,23.2 M79.3,23.2
		c0.9,0,1.6-0.8,1.6-1.6S80.2,20,79.3,20c-0.9,0-1.6,0.8-1.6,1.6C77.7,22.5,78.5,23.2,79.3,23.2 M98.2,35.3h2.7V24.6h-2.7V35.3z
		 M92.7,30.5c0,1.4-0.8,2.9-2.5,2.9s-2-1.6-2-2.9v-5.9h-2.7v6.7c0,2.2,1.1,4.3,3.9,4.3c1.6,0,2.9-1,3.3-2l0,0v1.7h2.6V24.6h-2.7
		C92.7,24.6,92.7,30.5,92.7,30.5z M75,27H78v8.4h2.7V27h3v-2.4H75V27z"/>
	<g>
		<path d="M241.8,49.5h-4.9v18.5h-3V49.5h-4.4v-2.6h4.4v-5.8c0-4.8,2.4-7.7,7.1-7.7c0.8,0,1.7,0.1,2.5,0.3l-0.6,2.7
			c-0.7-0.2-1.3-0.3-2.1-0.3c-3.3,0-4,2.4-4,5.4v5.4h4.9L241.8,49.5L241.8,49.5z"/>
		<path d="M244.6,46.9h2.9c0.1,1.1,0.2,2.7,0.2,3.6h0.1c1.1-2.5,3.8-4.2,6.8-4.2c0.8,0,1.4,0,2,0.2l-0.4,2.9
			c-0.4-0.1-1.3-0.3-2.2-0.3c-3.2,0-6.2,2.4-6.2,8v10.8h-3V51.6C244.7,50.4,244.7,48.3,244.6,46.9z"/>
		<path d="M276.9,58.2h-17.5c0.1,4.2,3.3,7.6,7.7,7.6c3.1,0,5.6-1.7,6.8-3.6l2.3,1.8c-2.5,3.1-5.6,4.5-9,4.5
			c-6.3,0-10.8-4.8-10.8-11c0-6.4,4.7-11,10.7-11c6.7,0,10.1,4.7,10.1,10.5C277,57.2,277,57.7,276.9,58.2z M273.8,55.8
			c-0.2-4-2.6-6.8-6.9-6.8c-4.1,0-7.1,3.3-7.4,6.8H273.8z"/>
		<path d="M299.9,58.2h-17.5c0.1,4.2,3.3,7.6,7.7,7.6c3.1,0,5.6-1.7,6.8-3.6l2.3,1.8c-2.5,3.1-5.6,4.5-9,4.5
			c-6.3,0-10.8-4.8-10.8-11c0-6.4,4.7-11,10.7-11c6.7,0,10.1,4.7,10.1,10.5C299.9,57.2,299.9,57.7,299.9,58.2z M296.9,55.8
			c-0.2-4-2.6-6.8-6.9-6.8c-4.1,0-7.1,3.3-7.4,6.8H296.9z"/>
	</g>
	<path id="_xAE__1_" d="M230.8,65c0-0.6-0.5-0.8-1-0.8h-1v2.7h0.5v-1.1h0.4l0.7,1.1h0.6l-0.8-1.1C230.7,65.5,230.8,65.4,230.8,65z
		 M229.4,65.4v-0.8h0.5c0.3,0,0.6,0.1,0.6,0.4c0,0.3-0.3,0.4-0.6,0.4C229.9,65.4,229.4,65.4,229.4,65.4z M229.8,63.1
		c-1.3,0-2.4,1-2.4,2.4c0,1.3,1,2.4,2.4,2.4c1.3,0,2.4-1,2.4-2.4C232.3,64.2,231.1,63.1,229.8,63.1z M229.8,67.5c-1.1,0-2-1-2-2
		c0-1.1,1-2,2-2c1.1,0,2,1,2,2C231.9,66.6,230.9,67.5,229.8,67.5z"/>
</g>
</svg>
