<svg xmlns="http://www.w3.org/2000/svg" xmlns:xlink="http://www.w3.org/1999/xlink" viewBox="0 0 20 20">
  <defs>
    <path id="a" d="M0 0h20v20H0z"/>
  </defs>
  <clipPath id="b">
    <use overflow="visible" xlink:href="#a"/>
  </clipPath>
  <path fill="#fff" d="M11.504 18.613v-7.137H9.579V8.904h1.925V6.71c0-1.727 1.135-3.311 3.752-3.311 1.06 0 1.846.1 1.846.1l-.064 2.4s-.796-.006-1.67-.006c-.945 0-1.094.428-1.094 1.135v1.876h2.839l-.122 2.572h-2.717v7.137h-2.77z" clip-path="url(#b)"/>
  <path fill="#3e5b97" d="M20 17.5s0 2.5-2.5 2.5h-15S0 20 0 17.5v-15S0 0 2.5 0h15S20 0 20 2.5v15z" clip-path="url(#b)"/>
  <path fill="#fff" d="M11.504 18.613v-7.137H9.579V8.904h1.925V6.71c0-1.727 1.135-3.311 3.752-3.311 1.06 0 1.846.1 1.846.1l-.064 2.4s-.796-.006-1.67-.006c-.945 0-1.094.428-1.094 1.135v1.876h2.839l-.122 2.572h-2.717v7.137h-2.77z" clip-path="url(#b)"/>
</svg>
