<svg xmlns="http://www.w3.org/2000/svg" xmlns:xlink="http://www.w3.org/1999/xlink" viewBox="0 0 20 20">
  <defs>
    <path id="a" d="M0 2h20v16.25H0z"/>
  </defs>
  <clipPath id="b">
    <use overflow="visible" xlink:href="#a"/>
  </clipPath>
  <path fill="#1dacef" d="M20 3.922c-.737.327-1.525.546-2.357.649.849-.507 1.498-1.315 1.807-2.273-.796.469-1.674.812-2.607.995C16.094 2.5 15.025 2 13.847 2c-2.265 0-4.103 1.837-4.103 4.102 0 .325.037.633.105.935-3.408-.172-6.433-1.802-8.458-4.288-.353.604-.554 1.314-.554 2.063 0 1.425.725 2.678 1.824 3.416-.671-.021-1.306-.207-1.858-.512v.05c0 1.988 1.416 3.648 3.293 4.023-.346.095-.71.146-1.083.146-.262 0-.519-.029-.77-.075.522 1.629 2.035 2.816 3.831 2.851-1.404 1.098-3.176 1.757-5.096 1.757-.332 0-.659-.021-.979-.059 1.816 1.162 3.971 1.842 6.29 1.842 7.546 0 11.676-6.25 11.676-11.674 0-.179-.004-.354-.015-.53.803-.576 1.501-1.299 2.05-2.125" clip-path="url(#b)"/>
</svg>
