<svg xmlns="http://www.w3.org/2000/svg" viewBox="0 0 20 20">
  <path fill="#bd081c" d="M10 0C4.477 0 0 4.477 0 10c0 4.095 2.462 7.612 5.985 9.159-.028-.698-.005-1.537.175-2.297.191-.812 1.286-5.448 1.286-5.448s-.319-.639-.319-1.582c0-1.482.859-2.589 1.93-2.589.908 0 1.349.683 1.349 1.501 0 .914-.583 2.282-.884 3.549-.25 1.061.531 1.926 1.579 1.926 1.895 0 3.171-2.434 3.171-5.316 0-2.191-1.477-3.832-4.161-3.832-3.034 0-4.924 2.262-4.924 4.789 0 .871.257 1.485.659 1.961.185.219.211.307.144.558-.048.184-.158.627-.204.803-.066.253-.272.344-.5.25-1.397-.57-2.048-2.101-2.048-3.82 0-2.841 2.395-6.247 7.148-6.247 3.818 0 6.331 2.763 6.331 5.728 0 3.923-2.182 6.854-5.396 6.854-1.08 0-2.096-.584-2.443-1.246 0 0-.582 2.304-.704 2.748-.212.771-.628 1.542-1.007 2.142.898.264 1.849.409 2.833.409 5.523 0 10-4.477 10-10S15.523 0 10 0z"/>
</svg>
