<?xml version="1.0" encoding="iso-8859-1"?>
<!-- Generator: Adobe Illustrator 17.1.0, SVG Export Plug-In . SVG Version: 6.00 Build 0)  -->
<!DOCTYPE svg PUBLIC "-//W3C//DTD SVG 1.1//EN" "http://www.w3.org/Graphics/SVG/1.1/DTD/svg11.dtd">
<svg version="1.1" xmlns="http://www.w3.org/2000/svg" xmlns:xlink="http://www.w3.org/1999/xlink" x="0px" y="0px"
	 viewBox="0 0 16 16" style="enable-background:new 0 0 16 16;" xml:space="preserve">
<g id="Layer_1">
	<g id="NYT_Logo">
	</g>
	<path style="fill:#ffffff;" d="M13.754,9.776c-0.485,1.281-1.378,2.27-2.658,2.794V9.776l1.533-1.378L11.095,7.04V5.118
		c1.397-0.097,2.367-1.126,2.367-2.387c0-1.649-1.572-2.232-2.464-2.232c-0.194,0-0.408,0-0.718,0.078v0.078
		c0.116,0,0.291-0.019,0.349-0.019c0.621,0,1.087,0.291,1.087,0.854c0,0.427-0.349,0.854-0.97,0.854
		c-1.533,0-3.338-1.242-5.298-1.242c-1.746,0-2.95,1.3-2.95,2.62c0,1.3,0.757,1.727,1.552,2.018L4.07,5.662
		C3.818,5.506,3.644,5.235,3.644,4.808c0-0.582,0.543-1.067,1.223-1.067c1.649,0,4.308,1.378,5.957,1.378h0.155v1.941L9.446,8.398
		l1.533,1.378v2.833c-0.64,0.233-1.3,0.33-1.979,0.33c-2.561,0-4.191-1.553-4.191-4.133c0-0.621,0.078-1.223,0.252-1.805
		l1.281-0.563v5.705l2.6-1.145V5.157L5.118,6.865c0.388-1.125,1.184-1.94,2.135-2.406L7.234,4.4
		C4.672,4.963,2.188,6.904,2.188,9.814c0,3.357,2.833,5.686,6.132,5.686c3.493,0,5.472-2.329,5.492-5.724H13.754z"/>
</g>
<g id="Labels" style="display:none;">
</g>
<g id="Boundaries" style="display:none;">
  <rect x="-19" y="-123" style="display:inline;fill:none;stroke:#00DFC3;stroke-width:2;stroke-miterlimit:10;" width="174" height="323"/>
</g>
</svg>