<svg xmlns="http://www.w3.org/2000/svg" viewBox="0 0 20 20">
  <path fill="#0a5986" d="M2.567 0h14.866C18.845 0 20 1.155 20 2.567v14.866C20 18.845 18.845 20 17.433 20H2.567C1.155 20 0 18.845 0 17.433V2.567C0 1.155 1.155 0 2.567 0zm12.002 2.222c-.495 0-.9.405-.9.9v2.155c0 .495.405.9.9.9h2.261c.495 0 .9-.405.9-.9V3.122c0-.495-.405-.9-.9-.9h-2.261zm3.17 6.236h-1.76c.166.544.256 1.12.256 1.716 0 3.327-2.783 6.023-6.217 6.023-3.433 0-6.216-2.697-6.216-6.023 0-.597.09-1.172.256-1.716H2.222v8.448c0 .437.357.795.795.795h13.927c.437 0 .795-.358.795-.795V8.458zm-7.72-2.394c-2.218 0-4.017 1.743-4.017 3.892s1.798 3.892 4.017 3.892c2.219 0 4.017-1.743 4.017-3.892s-1.799-3.892-4.017-3.892z"/>
</svg>
