<svg xmlns="http://www.w3.org/2000/svg" viewBox="0 0 316 36"><title>aArtboard 1</title><path d="M4.1,3.75H26L29.79,0H0V7.86Z"/><path d="M26.47,4.8H15.8V31.89L11.7,36h7.86V8.56h11V.7Z"/><path d="M4.51,4.8.7,8.55h9.56L14,4.8Z"/><path d="M14.75,5.5,11,9.31V35.23l3.75-3.75Z"/><path d="M45.84,14.46v1.93H42.91V29.47H40.39V16.34h-3V14.4h8.44Z"/><path d="M52.79,21.62c0-1.23-.41-1.88-1.47-1.88s-1.47.7-1.47,1.93v7.68H47.4V14h2.46v5.39a2.3,2.3,0,0,1,2.23-1.23h.64c1.76,0,2.58,1,2.58,2.87v8.33H52.85V21.62Z"/><path d="M62.72,26.23v-.59h2.4v.88c0,1.88-1.23,3-3.28,3H60.38c-2.17,0-3.58-1.23-3.58-3.93V22.13c0-2.58,1.29-3.93,3.46-3.93h1.58c2.11,0,3.34,1.17,3.34,3.81v2.4H59.32v1.17c0,1.7.59,2.46,1.82,2.46S62.72,27.23,62.72,26.23Zm-3.46-3.58h3.46v-.88c0-1.52-.59-2.17-1.7-2.17s-1.76.7-1.76,2.4Z"/><path d="M74.19,14.4l3.64,10.44V14.4h2.11v15H77.13L72.73,17V29.35H70.5v-15Z"/><path d="M87.72,26.23v-.59h2.4v.88c0,1.88-1.23,3-3.28,3H85.38c-2.17,0-3.58-1.23-3.58-3.93V22.13c0-2.58,1.29-3.93,3.46-3.93h1.58c2.11,0,3.34,1.17,3.34,3.81v2.4H84.32v1.17c0,1.7.59,2.46,1.82,2.46S87.66,27.23,87.72,26.23Zm-3.46-3.58h3.46v-.88c0-1.52-.59-2.17-1.7-2.17s-1.76.7-1.76,2.4Z"/><path d="M93.29,29.38l-2-11.08h2.46L95,26.92l1.29-8.62h3l1.17,8.5,1.35-8.5H104l-2.05,11.08h-3L97.63,20.7l-1.29,8.68Z"/><path d="M117.43,14.4l-3.58,9.15v5.8h-2.58v-5.8L107.7,14.4h2.76L112.8,21l2.4-6.63Z"/><path d="M122,29.52H120.4c-2.35,0-3.4-1.52-3.4-3.93V22.13c0-2.46,1.11-3.93,3.4-3.93H122c2.29,0,3.4,1.52,3.4,3.93v3.46C125.44,28,124.39,29.52,122,29.52Zm.94-7.09c0-1.88-.47-2.76-1.7-2.76s-1.76.88-1.76,2.76v2.87c0,1.82.53,2.76,1.76,2.76s1.7-.94,1.7-2.76Z"/><path d="M129.26,18.26v1.52a2.08,2.08,0,0,1,2-1.58h.88v2.29h-.35c-1.76,0-2.52.47-2.52,2.35v6.51H126.8V18.26Z"/><path d="M139.23,29.36l-3.17-5.45v5.45H133.6V14h2.46v9l3.11-4.75h2.64l-3.28,4.93,3.58,6.16Z"/><path d="M154.64,14.46v1.93h-2.93V29.47h-2.52V16.34h-3V14.4h8.44Z"/><path d="M156.3,14.8h2.58v2.46H156.3Zm2.52,3.46V29.34h-2.46V18.26Z"/><path d="M165.86,21.54c0-1.17-.35-1.76-1.35-1.76s-1.35.7-1.35,1.82v7.8H160.7V18.32h2.4v1.11a2.37,2.37,0,0,1,2.17-1.23h.59A2.06,2.06,0,0,1,168,19.55a2.5,2.5,0,0,1,2.35-1.35H171c1.64,0,2.46.94,2.46,2.76V29.4H171V21.54c0-1.17-.35-1.76-1.35-1.76s-1.35.7-1.35,1.82v7.8H165.8V21.54Z"/><path d="M181,26.23v-.59h2.4v.88c0,1.88-1.23,3-3.28,3h-1.47c-2.17,0-3.58-1.23-3.58-3.93V22.13c0-2.58,1.29-3.93,3.46-3.93h1.58c2.11,0,3.34,1.17,3.34,3.81v2.4h-5.86v1.17c0,1.7.59,2.46,1.82,2.46S181,27.23,181,26.23Zm-3.46-3.58H181v-.88c0-1.52-.59-2.17-1.7-2.17s-1.76.7-1.76,2.4Z"/><path d="M185.13,21.42v-.64c0-1.64.94-2.58,2.87-2.58h1.58c2.05,0,3,.76,3,2.7v.76h-2.35v-.59a1.28,1.28,0,0,0-1.41-1.47c-1,0-1.41.53-1.41,1.23V21c0,.76.35,1.06,1.11,1.41l1.82.82c1.7.76,2.4,1.35,2.4,2.93v.76c0,1.7-1,2.64-3,2.64h-1.58c-2.35,0-3.28-.88-3.28-2.87v-.94h2.4v.7c0,1,.29,1.7,1.58,1.7,1.06,0,1.47-.59,1.47-1.35v-.12c0-.76-.35-1.06-1.11-1.41l-1.82-.82C185.78,23.65,185.13,22.89,185.13,21.42Z"/><path d="M207.65,17.64v1.23h-2.52V17.82c0-1.23-.41-2-1.82-2a1.49,1.49,0,0,0-1.7,1.7v.53c0,1,.35,1.41,1.47,2l2,1.06c1.82.88,2.76,1.64,2.76,3.69v1.29a3,3,0,0,1-3.4,3.4h-1.93c-2.46,0-3.69-1-3.69-3.58V24.33h2.64v1.35c0,1.29.41,2.17,2,2.17A1.61,1.61,0,0,0,205.25,26v-.7c0-1.06-.41-1.52-1.47-2.05l-2-1c-1.93-1-2.76-1.82-2.76-3.75v-1a2.92,2.92,0,0,1,3.28-3.22h1.88C206.6,14.3,207.65,15.3,207.65,17.64Z"/><path d="M213.57,27.73h.76v1.64h-2.52A1.66,1.66,0,0,1,210,27.5V20.11H208.7V18.29H210v-3h2.46v3h1.82v1.82h-1.82v6.45C212.51,27.44,212.74,27.73,213.57,27.73Z"/><path d="M218.82,30,215.3,18.3H218L219.93,26l1.64-7.74h2.29l-3.11,13c-.35,1.47-.88,1.76-2.17,1.76h-2.11V31.43h.82c.94,0,1.29-.18,1.52-1.17Z"/><path d="M227.36,14V29.36H224.9V14Z"/><path d="M234.72,26.29v-.59h2.4v.82c0,1.88-1.23,3-3.28,3h-1.47c-2.17,0-3.58-1.23-3.58-3.93V22.13c0-2.58,1.29-3.93,3.46-3.93h1.58c2.11,0,3.34,1.17,3.34,3.81v2.4h-5.86v1.17c0,1.7.59,2.46,1.82,2.46S234.66,27.29,234.72,26.29Zm-3.46-3.64h3.46v-.88c0-1.52-.59-2.17-1.7-2.17s-1.76.7-1.76,2.4Z"/><path d="M246.69,14.4l2.05,10.79,2.05-10.79h3.81v15h-2.35V16.45l-2.64,12.9h-2.23l-2.52-12.84V29.35H242.7v-15Z"/><path d="M261.91,28.2a2.46,2.46,0,0,1-2.29,1.23H259a2.36,2.36,0,0,1-2.64-2.58V25.5a2.39,2.39,0,0,1,2.35-2.64,21.31,21.31,0,0,0,2.29-.23c.59-.12.82-.53.82-1.17v-.53c0-.94-.35-1.47-1.47-1.47a1.44,1.44,0,0,0-1.52,1.64v.59H256.4v-.76c0-1.82.94-2.93,3.17-2.93h1.58c2.35,0,3,1.06,3,2.93V29.2h-2.4v-1ZM260.27,28a1.54,1.54,0,0,0,1.64-1.64V23.39a1.28,1.28,0,0,1-.53.41c-.35.18-.88.23-1.35.41A1.28,1.28,0,0,0,259,25.68v.88C258.86,27.44,259.27,28,260.27,28Z"/><path d="M265.8,21.84c0-2.52,1.11-3.64,2.93-3.64h.59a2.57,2.57,0,0,1,2.35,1.23V18.32h2.46V30q0,3.17-3.34,3.17h-1.64c-2.29,0-3.22-1-3.22-2.76V30h2.46v.12c0,.82.35,1.47,1.58,1.47s1.7-.7,1.7-1.88V27.93a2.43,2.43,0,0,1-2.35,1.35h-.59c-1.76,0-2.93-1.11-2.93-3.64Zm4.1,5.92c1.11,0,1.76-.76,1.76-2.52V22.3c0-1.76-.7-2.52-1.76-2.52s-1.64.76-1.64,2.52v2.93C268.32,27,268.85,27.76,269.91,27.76Z"/><path d="M281.21,28.2a2.46,2.46,0,0,1-2.29,1.23h-.59a2.36,2.36,0,0,1-2.64-2.58V25.5A2.39,2.39,0,0,1,278,22.87a21.31,21.31,0,0,0,2.29-.23c.59-.12.82-.53.82-1.17v-.53c0-.94-.35-1.47-1.47-1.47a1.44,1.44,0,0,0-1.52,1.64v.59H275.7v-.76c0-1.82.94-2.93,3.17-2.93h1.58c2.35,0,3,1.06,3,2.93V29.2h-2.4v-1ZM279.57,28a1.54,1.54,0,0,0,1.64-1.64V23.39a1.28,1.28,0,0,1-.53.41c-.35.18-.88.23-1.35.41a1.28,1.28,0,0,0-1.06,1.47v.88C278.16,27.44,278.57,28,279.57,28Z"/><path d="M289.44,20.18H285.1V18.3h7v2.17l-4.4,7.09h4.51v1.88H285.1V27.33Z"/><path d="M293.6,14.8h2.58v2.46H293.6Zm2.52,3.46V29.34h-2.46V18.26Z"/><path d="M303.35,21.66c0-1.23-.41-1.88-1.47-1.88s-1.52.7-1.52,1.88V29.4H297.9V18.32h2.4v1.17a2.43,2.43,0,0,1,2.29-1.29h.64c1.64,0,2.52,1,2.52,2.87v8.38h-2.46v-7.8Z"/><path d="M313.06,26.23v-.59h2.4v.88c0,1.88-1.23,3-3.28,3h-1.41c-2.17,0-3.58-1.23-3.58-3.93V22.13c0-2.58,1.29-3.93,3.46-3.93h1.58c2.11,0,3.34,1.17,3.34,3.81v2.4h-5.86v1.17c0,1.7.59,2.46,1.82,2.46S313.06,27.23,313.06,26.23Zm-3.4-3.58h3.46v-.88c0-1.52-.59-2.17-1.7-2.17s-1.76.7-1.76,2.4Z"/></svg>