<?xml version="1.0" encoding="iso-8859-1"?>
<!-- Generator: Adobe Illustrator 17.1.0, SVG Export Plug-In . SVG Version: 6.00 Build 0)  -->
<!DOCTYPE svg PUBLIC "-//W3C//DTD SVG 1.1//EN" "http://www.w3.org/Graphics/SVG/1.1/DTD/svg11.dtd">
<svg version="1.1" id="Layer_1" xmlns="http://www.w3.org/2000/svg" xmlns:xlink="http://www.w3.org/1999/xlink" x="0px" y="0px"
	 viewBox="0 0 285 54" style="enable-background:new 0 0 285 54;" xml:space="preserve">
<g>
	<path style="fill:#BAD62D;" d="M8.444,21.889c4.664,0,8.444-3.78,8.444-8.444S13.108,5,8.444,5S0,8.781,0,13.445
		S3.78,21.889,8.444,21.889"/>
	<path style="fill:#BAD62D;" d="M8.444,43c4.664,0,8.444-3.781,8.444-8.444c0-4.664-3.78-8.445-8.444-8.445S0,29.892,0,34.556
		C0,39.219,3.78,43,8.444,43"/>
	<g>
		<path d="M57.971,20.687h-6.528v-6.145h-2.784v18.865h3.888V40.8H32.385v-7.393h3.84V14.542h-2.736v6.145h-6.576V7.148h31.059
			V20.687z"/>
		<path d="M90.371,40.8h-12.77V27.263c0-2.112-1.008-3.265-2.592-3.265c-1.873,0-2.593,1.633-2.593,3.937v6.625h1.92v6.24H59.744
			v-6.24h1.824V13.39h-1.824V7.148h12.673v13.346c3.024-2.208,4.944-3.217,7.776-3.217c4.177,0,8.257,2.305,8.257,7.585v9.697h1.921
			V40.8z"/>
		<path d="M116.818,31.631h-15.121c0.336,2.305,1.488,3.889,3.984,3.889c1.632,0,2.64-0.769,3.6-2.017h7.537
			c-0.528,1.681-1.393,3.169-2.641,4.417c-2.399,2.399-6.048,3.36-9.36,3.36c-3.456,0-7.297-0.721-9.985-3.121
			c-2.64-2.352-3.984-5.472-3.984-8.977c0-7.536,6.001-11.905,13.153-11.905c3.12,0,5.856,0.769,8.353,2.688
			c2.833,2.16,4.561,5.904,4.561,9.409C116.914,30.143,116.866,30.863,116.818,31.631z M107.361,28.079v-0.576
			c0-1.969-0.479-3.984-2.832-3.984c-1.248,0-2.16,0.672-2.592,1.824c-0.336,0.815-0.24,1.872-0.24,2.736H107.361z"/>
		<path d="M151.187,14.542h-2.64v15.265c0,3.12-0.864,5.473-2.784,7.489c-2.688,2.784-6.577,4.128-11.569,4.128
			c-6.769,0-11.089-2.448-12.961-7.488c-0.672-1.776-0.864-3.648-0.864-7.537V14.542h-2.977V7.148h18.338v7.394h-2.929v13.201
			c0,1.68,0.24,2.784,0.769,3.696c0.72,1.199,2.16,1.92,3.792,1.92c2.257,0,3.841-1.584,3.841-3.984V14.542h-2.641V7.148h12.625
			V14.542z"/>
		<path d="M177.634,37.92c-1.92,2.112-4.656,3.36-7.152,3.36c-2.064,0-4.032-0.673-6.961-2.448V43.2h2.593v6.24h-15.361V43.2h1.92
			V23.998h-1.92v-6.24h12.769v2.16c2.784-1.92,4.849-2.641,7.297-2.641c2.352,0,4.416,0.816,6.048,2.353
			c2.353,2.256,3.841,5.952,3.841,9.648C180.706,32.688,179.602,35.808,177.634,37.92z M166.641,23.519
			c-2.064,0-3.12,1.776-3.12,5.376c0,3.841,0.912,5.856,3.12,5.856c2.641,0,3.217-2.784,3.217-5.28
			C169.857,27.263,169.761,23.519,166.641,23.519z"/>
		<path d="M195.775,41.28c-2.399,0-4.08-0.385-7.488-1.633V40.8h-5.185v-7.681h5.137c0.624,2.017,1.44,3.072,3.408,3.072
			c1.488,0,2.4-0.624,2.4-1.776c0-0.815-0.528-1.439-1.536-1.872l-4.992-2.112c-2.545-1.104-3.889-3.36-3.889-5.76
			c0-3.937,3.889-7.394,8.785-7.394c2.016,0,3.696,0.433,5.952,1.44v-0.96h5.232v7.393H198.8c-0.432-2.304-1.296-3.552-3.024-3.552
			c-1.248,0-2.208,0.768-2.208,1.775c0,0.864,0.576,1.584,1.776,2.064l4.896,1.92c3.216,1.248,4.704,3.312,4.704,6.097
			C204.944,37.871,201.2,41.28,195.775,41.28z"/>
		<path d="M236.145,40.8h-12.769V27.263c0-2.112-1.008-3.265-2.593-3.265c-1.872,0-2.592,1.633-2.592,3.937v6.625h1.92v6.24h-14.593
			v-6.24h1.824V13.39h-1.824V7.148h12.673v13.346c3.024-2.208,4.944-3.217,7.776-3.217c4.177,0,8.257,2.305,8.257,7.585v9.697h1.92
			V40.8z"/>
		<path d="M251.551,41.28c-7.152,0-13.969-4.177-13.969-11.953c0-7.825,6.672-12.05,13.921-12.05
			c7.345,0,13.873,4.177,13.873,12.098C265.376,37.151,258.703,41.28,251.551,41.28z M251.406,23.519
			c-2.592,0-2.976,3.36-2.976,5.28s0.24,5.952,2.976,5.952c2.736,0,3.121-3.216,3.121-5.28
			C254.527,27.311,254.383,23.519,251.406,23.519z"/>
		<path d="M283.855,40.8H269.79V23.998h-2.16v-6.24h2.16v-7.2h10.849v7.2h3.217v6.24h-3.217V34.56h3.217V40.8z"/>
	</g>
</g>
</svg>
